<svg xmlns="http://www.w3.org/2000/svg" viewBox="0 0 32 32" fill="none">
  <defs>
    <linearGradient id="bg" x1="0" y1="0" x2="1" y2="1">
      <stop offset="0%" stop-color="#2e7d32"/>
      <stop offset="100%" stop-color="#1b5e20"/>
    </linearGradient>
    <linearGradient id="sun" x1="0" y1="0" x2="1" y2="1">
      <stop offset="0%" stop-color="#ffd740"/>
      <stop offset="100%" stop-color="#ff8f00"/>
    </linearGradient>
  </defs>
  <rect width="32" height="32" rx="8" fill="url(#bg)"/>
  <!-- Sun -->
  <circle cx="16" cy="11" r="4.5" fill="url(#sun)"/>
  <!-- Rays -->
  <line x1="16" y1="4"  x2="16" y2="2"    stroke="#ffd740" stroke-width="1.5" stroke-linecap="round"/>
  <line x1="21" y1="6"  x2="22.5" y2="4.5" stroke="#ffd740" stroke-width="1.5" stroke-linecap="round"/>
  <line x1="23" y1="11" x2="25"   y2="11"  stroke="#ffd740" stroke-width="1.5" stroke-linecap="round"/>
  <line x1="11" y1="6"  x2="9.5"  y2="4.5" stroke="#ffd740" stroke-width="1.5" stroke-linecap="round"/>
  <line x1="9"  y1="11" x2="7"    y2="11"  stroke="#ffd740" stroke-width="1.5" stroke-linecap="round"/>
  <!-- Stem -->
  <path d="M16 15.5 Q16 22 16 27" stroke="#8bc34a" stroke-width="1.8" stroke-linecap="round" fill="none"/>
  <!-- Leaves -->
  <path d="M16 23 Q10 19 8 21 Q10 26 16 25" fill="#8bc34a"/>
  <path d="M16 19 Q22 15 24 17 Q22 22 16 23" fill="#a5d6a7"/>
</svg>
